<?xml version="1.0" standalone="no"?>
<!DOCTYPE svg PUBLIC "-//W3C//DTD SVG 20010904//EN"
 "http://www.w3.org/TR/2001/REC-SVG-20010904/DTD/svg10.dtd">
<svg version="1.0" xmlns="http://www.w3.org/2000/svg"
 width="500.000000pt" height="500.000000pt" viewBox="0 0 500.000000 500.000000"
 preserveAspectRatio="xMidYMid meet">

<g transform="translate(0.000000,500.000000) scale(0.100000,-0.100000)"
fill="#000000" stroke="none">
<path d="M3450 2529 c-110 -268 -116 -281 -150 -297 l-35 -16 43 -4 c23 -2 59
-2 80 0 l37 4 -32 13 c-18 7 -33 18 -33 24 0 7 12 40 26 75 l27 62 99 0 98 0
35 -74 c44 -91 72 -109 168 -104 55 3 59 4 37 15 -21 9 -46 61 -144 297 -66
157 -124 286 -130 286 -6 0 -63 -126 -126 -281z m115 -20 l43 -104 -90 -3
c-50 -1 -92 -1 -95 1 -2 3 13 44 33 93 43 105 54 127 60 121 3 -2 25 -51 49
-108z"/>
<path d="M1078 2784 l32 -14 -2 -267 c-3 -259 -4 -268 -23 -271 -11 -2 -24 -8
-30 -13 -5 -5 85 -9 223 -9 l232 0 0 75 c0 66 -2 75 -18 75 -22 0 -62 -67 -62
-104 l0 -26 -90 0 -90 0 0 273 0 273 28 11 c21 9 1 11 -103 11 -121 0 -128 -1
-97 -14z"/>
<path d="M1583 2787 l27 -11 0 -273 c0 -264 -1 -273 -19 -273 -11 0 -23 -4
-26 -10 -4 -6 37 -10 115 -10 78 0 119 4 115 10 -3 6 -15 10 -26 10 -18 0 -19
9 -19 256 0 251 -4 286 -34 306 -6 4 -45 7 -86 7 -65 -1 -71 -3 -47 -12z"/>
<path d="M3923 2789 l27 -11 0 -272 0 -272 -27 -11 c-23 -9 -3 -11 97 -11 100
0 120 2 98 11 -28 11 -28 11 -28 112 l0 102 87 6 c152 11 218 64 218 177 0 75
-26 118 -90 150 -47 24 -60 25 -230 27 -135 2 -173 0 -152 -8z m287 -37 c65
-65 65 -199 0 -264 -23 -23 -37 -28 -74 -28 l-46 0 0 160 0 160 46 0 c37 0 51
-5 74 -28z"/>
<path d="M4493 2789 l27 -11 0 -272 0 -272 -27 -11 c-23 -9 -3 -11 97 -11 100
0 120 2 98 11 -28 11 -28 11 -28 112 l0 102 87 6 c152 11 218 64 218 177 0 75
-26 118 -90 150 -47 24 -60 25 -230 27 -135 2 -173 0 -152 -8z m287 -37 c65
-65 65 -199 0 -264 -23 -23 -37 -28 -74 -28 l-46 0 0 160 0 160 46 0 c37 0 51
-5 74 -28z"/>
<path d="M2006 2639 c-53 -13 -101 -51 -128 -102 -17 -32 -23 -59 -23 -117 0
-100 31 -156 107 -194 60 -30 151 -35 197 -11 37 19 81 71 81 96 0 30 -15 22
-28 -15 -25 -68 -123 -99 -171 -55 -29 27 -41 60 -41 113 l0 42 121 12 c67 7
126 15 131 18 18 11 3 108 -20 142 -41 56 -147 90 -226 71z m96 -49 c11 -21
18 -58 18 -93 0 -53 -2 -58 -26 -67 -14 -6 -41 -10 -61 -10 l-36 0 5 79 c3 52
11 88 22 106 24 36 56 30 78 -15z"/>
<path d="M2970 2641 c-116 -25 -177 -113 -168 -241 5 -72 34 -128 87 -165 35
-24 54 -30 112 -33 125 -7 205 43 235 147 25 86 2 194 -53 243 -44 40 -146 63
-213 49z m89 -30 c29 -29 41 -85 41 -191 0 -113 -12 -162 -46 -189 -34 -26
-62 -15 -88 34 -15 30 -20 59 -20 139 -1 118 7 164 35 200 24 31 52 33 78 7z"/>
<path d="M2290 2618 c20 -8 50 -56 130 -212 62 -119 111 -201 119 -201 9 0 42
68 92 190 69 170 80 192 109 207 51 26 48 28 -41 27 l-84 0 33 -16 c17 -9 32
-22 32 -28 0 -11 -78 -205 -85 -213 -2 -2 -29 46 -60 107 -73 142 -84 151
-189 150 -66 -1 -76 -3 -56 -11z"/>
</g>
</svg>
